<?xml version="1.0" encoding="utf-8"?>
<!-- Generator: Adobe Illustrator 17.0.0, SVG Export Plug-In . SVG Version: 6.00 Build 0)  -->
<!DOCTYPE svg PUBLIC "-//W3C//DTD SVG 1.1//EN" "http://www.w3.org/Graphics/SVG/1.1/DTD/svg11.dtd">
<svg version="1.1" id="Layer_1" xmlns="http://www.w3.org/2000/svg" xmlns:xlink="http://www.w3.org/1999/xlink" x="0px" y="0px"
	 width="1200px" height="580px" viewBox="0 0 1200 580" enable-background="new 0 0 1200 580" xml:space="preserve">
<text transform="matrix(1 0 0 1 13.4331 528.4219)" fill="#FFFFFF" font-family="'Lato-Regular'" font-size="27.6206">40</text>
<text transform="matrix(1 0 0 1 65.8672 572.3423)" fill="#FFFFFF" font-family="'Lato-Regular'" font-size="27.6206">12a</text>
<text transform="matrix(1 0 0 1 212.0688 572.3423)" fill="#FFFFFF" font-family="'Lato-Regular'" font-size="27.6206">3a</text>
<text transform="matrix(1 0 0 1 750.0598 572.3423)" fill="#FFFFFF" font-family="'Lato-Regular'" font-size="27.6206">3p</text>
<text transform="matrix(1 0 0 1 342.2507 572.3423)" fill="#FFFFFF" font-family="'Lato-Regular'" font-size="27.6206">6a</text>
<text transform="matrix(1 0 0 1 881.4846 572.3423)" fill="#FFFFFF" font-family="'Lato-Regular'" font-size="27.6206">6p</text>
<text transform="matrix(1 0 0 1 1012.9089 572.3423)" fill="#FFFFFF" font-family="'Lato-Regular'" font-size="27.6206">9p</text>
<text transform="matrix(1 0 0 1 472.4326 572.3423)" fill="#FFFFFF" font-family="'Lato-Regular'" font-size="27.6206">9a</text>
<text transform="matrix(1 0 0 1 1144.3335 572.3423)" fill="#FFFFFF" font-family="'Lato-Regular'" font-size="27.6206">12a</text>
<text transform="matrix(1 0 0 1 602.615 572.3423)" fill="#FFFFFF" font-family="'Lato-Regular'" font-size="27.6206">12p</text>
<text transform="matrix(1 0 0 1 15.1592 452.9424)" fill="#FFFFFF" font-family="'Lato-Regular'" font-size="27.6206">60</text>
<text transform="matrix(1 0 0 1 15.1592 384.4502)" fill="#FFFFFF" font-family="'Lato-Regular'" font-size="27.6206">80</text>
<text transform="matrix(1 0 0 1 -0.8604 308.1665)" fill="#FFFFFF" font-family="'Lato-Regular'" font-size="27.6206">100</text>
<text transform="matrix(1 0 0 1 -0.8604 235.4087)" fill="#FFFFFF" font-family="'Lato-Regular'" font-size="27.6206">120</text>
<text transform="matrix(1 0 0 1 -0.8604 162.0615)" fill="#FFFFFF" font-family="'Lato-Regular'" font-size="27.6206">140</text>
<text transform="matrix(1 0 0 1 -0.8604 86.9658)" fill="#FFFFFF" font-family="'Lato-Regular'" font-size="27.6206">160</text>
<g>
	
		<line fill="none" stroke="#D0D2D3" stroke-width="1.082" stroke-miterlimit="10" x1="68.478" y1="154.427" x2="1194.038" y2="154.427"/>
	
		<line fill="none" stroke="#D0D2D3" stroke-width="1.082" stroke-miterlimit="10" x1="68.478" y1="81.012" x2="1194.038" y2="81.012"/>
	
		<line fill="none" stroke="#D0D2D3" stroke-width="1.082" stroke-miterlimit="10" x1="68.478" y1="227.06" x2="1194.038" y2="227.06"/>
	
		<line fill="none" stroke="#D0D2D3" stroke-width="1.082" stroke-miterlimit="10" x1="68.478" y1="299.622" x2="1194.038" y2="299.622"/>
	
		<line fill="none" stroke="#D0D2D3" stroke-width="1.082" stroke-miterlimit="10" x1="68.478" y1="374.226" x2="1194.038" y2="374.226"/>
	
		<line fill="none" stroke="#D0D2D3" stroke-width="1.082" stroke-miterlimit="10" x1="68.478" y1="446.384" x2="1194.038" y2="446.384"/>
	
		<line fill="none" stroke="#D0D2D3" stroke-width="1.082" stroke-miterlimit="10" x1="68.478" y1="520.275" x2="1194.038" y2="520.275"/>
</g>
<polyline fill="none" stroke="#FFFFFF" stroke-width="4.2934" stroke-linecap="round" stroke-linejoin="round" stroke-miterlimit="10" points="
	85.397,176.736 108.648,216.758 131.704,193.329 189.345,217.823 240.399,194.394 258.514,265.748 279.924,218.888 301.333,218.888 
	324.39,167.769 344.153,167.769 370.503,116.65 390.265,116.65 434.731,193.329 477.55,194.394 500.607,216.758 522.016,166.704 
	587.892,243.383 610.948,316.867 632.358,241.253 675.177,293.438 698.234,243.383 742.699,317.932 783.872,268.943 
	851.394,320.062 872.804,267.878 894.213,317.932 961.736,292.373 1004.555,241.253 1045.727,216.758 1091.84,270.008 
	1113.249,242.318 1180.321,219.089 "/>
<polyline fill="none" stroke="#FFFFFF" stroke-width="4.2934" stroke-linecap="round" stroke-linejoin="round" stroke-miterlimit="10" points="
	85.591,393.547 107.001,370.117 149.82,370.117 194.286,320.062 217.342,392.482 237.105,371.182 260.161,419.106 306.274,343.492 
	326.037,343.492 349.093,320.062 370.503,341.362 390.265,320.062 413.322,369.052 438.025,344.557 459.435,393.547 
	479.197,393.547 525.31,320.062 545.073,422.301 564.836,422.301 586.245,469.161 632.358,394.612 653.768,446.796 698.234,495.785 
	719.643,470.226 742.699,493.656 765.756,472.356 803.634,472.356 829.985,443.601 856.335,471.291 892.566,420.171 920.563,496.85 
	963.383,470.226 1001.261,370.117 1029.258,393.547 1068.783,370.117 1093.487,393.547 1137.953,393.547 1179.125,369.052 "/>
<line fill="#35C1D5" stroke="#FFFFFF" stroke-width="2.7668" stroke-miterlimit="10" stroke-dasharray="5.5336,5.5336" x1="373.82" y1="117.887" x2="373.82" y2="338.357"/>
<line fill="#35C1D5" stroke="#FFFFFF" stroke-width="2.4934" stroke-miterlimit="10" stroke-dasharray="4.9868,4.9868" x1="237.538" y1="195.386" x2="237.538" y2="374.434"/>
<line fill="#35C1D5" stroke="#FFFFFF" stroke-width="2.6377" stroke-miterlimit="10" stroke-dasharray="5.2753,5.2753" x1="85.471" y1="176.33" x2="85.471" y2="395.744"/>
<line fill="#35C1D5" stroke="#FFFFFF" stroke-width="2.1467" stroke-miterlimit="10" stroke-dasharray="4.2934,4.2934" x1="474.52" y1="194.785" x2="474.52" y2="392.597"/>
<line fill="#35C1D5" stroke="#FFFFFF" stroke-width="1.891" stroke-miterlimit="10" stroke-dasharray="3.7821,3.7821" x1="631.07" y1="243.031" x2="631.07" y2="396.532"/>
<line fill="#35C1D5" stroke="#FFFFFF" stroke-width="2.0519" stroke-miterlimit="10" stroke-dasharray="4.1037,4.1037" x1="764.206" y1="291.003" x2="764.206" y2="471.72"/>
<line fill="#35C1D5" stroke="#FFFFFF" stroke-width="1.5883" stroke-miterlimit="10" stroke-dasharray="3.1765,3.1765" x1="893.195" y1="315.635" x2="893.195" y2="423.914"/>
<line fill="#35C1D5" stroke="#FFFFFF" stroke-width="1.9714" stroke-miterlimit="10" stroke-dasharray="3.9429,3.9429" x1="1031.778" y1="226.269" x2="1031.778" y2="393.1"/>
<text transform="matrix(1 0 0 1 -1.3177 26.5598)" fill="#FFFFFF" font-family="'Lato-Bold'" font-size="27.6206">mm HG</text>
</svg>
