<?xml version="1.0" encoding="utf-8"?>
<!-- Generator: Adobe Illustrator 17.0.0, SVG Export Plug-In . SVG Version: 6.00 Build 0)  -->
<!DOCTYPE svg PUBLIC "-//W3C//DTD SVG 1.1//EN" "http://www.w3.org/Graphics/SVG/1.1/DTD/svg11.dtd">
<svg version="1.1" id="Layer_1" xmlns="http://www.w3.org/2000/svg" xmlns:xlink="http://www.w3.org/1999/xlink" x="0px" y="0px"
	 width="680px" height="500px" viewBox="0 0 680 500" enable-background="new 0 0 680 500" xml:space="preserve">
<text transform="matrix(1 0 0 1 22.5076 449.9609)" fill="#FFFFFF" font-family="'Lato-Regular'" font-size="24">0</text>
<text transform="matrix(1 0 0 1 -3.8313 379.2563)" fill="#FFFFFF" font-family="'Lato-Regular'" font-size="24">100</text>
<text transform="matrix(1 0 0 1 -3.8313 308.5513)" fill="#FFFFFF" font-family="'Lato-Regular'" font-size="24">200</text>
<text transform="matrix(1 0 0 1 -3.8313 237.8457)" fill="#FFFFFF" font-family="'Lato-Regular'" font-size="24">300</text>
<text transform="matrix(1 0 0 1 -3.8313 167.1406)" fill="#FFFFFF" font-family="'Lato-Regular'" font-size="24">400</text>
<text transform="matrix(1 0 0 1 -3.8313 96.4355)" fill="#FFFFFF" font-family="'Lato-Regular'" font-size="24">500</text>
<line fill="none" stroke="#D0D2D3" stroke-width="0.75" stroke-miterlimit="10" x1="53.917" y1="90.6" x2="676.301" y2="90.6"/>
<text transform="matrix(1 0 0 1 -3.8313 25.7305)" fill="#FFFFFF" font-family="'Lato-Regular'" font-size="24">600</text>
<line fill="none" stroke="#D0D2D3" stroke-width="0.75" stroke-miterlimit="10" x1="53.917" y1="20.143" x2="676.301" y2="20.143"/>
<line fill="none" stroke="#D0D2D3" stroke-width="0.75" stroke-miterlimit="10" x1="53.917" y1="161.056" x2="676.301" y2="161.056"/>
<line fill="none" stroke="#D0D2D3" stroke-width="0.75" stroke-miterlimit="10" x1="53.917" y1="231.513" x2="676.301" y2="231.513"/>
<line fill="none" stroke="#D0D2D3" stroke-width="0.75" stroke-miterlimit="10" x1="53.917" y1="301.97" x2="676.301" y2="301.97"/>
<line fill="none" stroke="#D0D2D3" stroke-width="0.75" stroke-miterlimit="10" x1="53.917" y1="372.427" x2="676.301" y2="372.427"/>
<line fill="none" stroke="#D0D2D3" stroke-width="0.75" stroke-miterlimit="10" x1="53.917" y1="442.883" x2="676.301" y2="442.883"/>
<text transform="matrix(1 0 0 1 49.5063 491.8706)" fill="#FFFFFF" font-family="'Lato-Regular'" font-size="24">12a</text>
<text transform="matrix(1 0 0 1 202.3359 491.8706)" fill="#FFFFFF" font-family="'Lato-Regular'" font-size="24">6a</text>
<text transform="matrix(1 0 0 1 495.1555 491.8706)" fill="#FFFFFF" font-family="'Lato-Regular'" font-size="24">6p</text>
<text transform="matrix(1 0 0 1 635.1453 491.8706)" fill="#FFFFFF" font-family="'Lato-Regular'" font-size="24">12a</text>
<text transform="matrix(1 0 0 1 341.2466 491.8706)" fill="#FFFFFF" font-family="'Lato-Regular'" font-size="24">12p</text>
<g>
	
		<line fill="none" stroke="#FFFFFF" stroke-width="9.3836" stroke-miterlimit="10" x1="252.696" y1="443.032" x2="252.696" y2="429.639"/>
	
		<line fill="none" stroke="#FFFFFF" stroke-width="9.3836" stroke-miterlimit="10" x1="265.988" y1="443.032" x2="265.988" y2="319.149"/>
	
		<line fill="none" stroke="#FFFFFF" stroke-width="9.3836" stroke-miterlimit="10" x1="349.017" y1="443.032" x2="349.017" y2="415.305"/>
	
		<line fill="none" stroke="#FFFFFF" stroke-width="9.3836" stroke-miterlimit="10" x1="432.823" y1="443.032" x2="432.823" y2="415.305"/>
	
		<line fill="none" stroke="#FFFFFF" stroke-width="9.3836" stroke-miterlimit="10" x1="279.281" y1="443.032" x2="279.281" y2="79.56"/>
	
		<line fill="none" stroke="#FFFFFF" stroke-width="9.3836" stroke-miterlimit="10" x1="292.574" y1="443.032" x2="292.574" y2="111.8"/>
	
		<line fill="none" stroke="#FFFFFF" stroke-width="9.3836" stroke-miterlimit="10" x1="419.6" y1="443.032" x2="419.6" y2="381.929"/>
	
		<line fill="none" stroke="#FFFFFF" stroke-width="9.3836" stroke-miterlimit="10" x1="499.25" y1="443.032" x2="499.25" y2="142.692"/>
	
		<line fill="none" stroke="#FFFFFF" stroke-width="9.3836" stroke-miterlimit="10" x1="512.598" y1="443.032" x2="512.598" y2="59.965"/>
	
		<line fill="none" stroke="#FFFFFF" stroke-width="9.3836" stroke-miterlimit="10" x1="525.946" y1="443.032" x2="525.946" y2="181.4"/>
	
		<line fill="none" stroke="#FFFFFF" stroke-width="9.3836" stroke-miterlimit="10" x1="539.293" y1="443.032" x2="539.293" y2="280.824"/>
	
		<line fill="none" stroke="#FFFFFF" stroke-width="9.3836" stroke-miterlimit="10" x1="552.641" y1="443.032" x2="552.641" y2="143.451"/>
	
		<line fill="none" stroke="#FFFFFF" stroke-width="9.3836" stroke-miterlimit="10" x1="565.989" y1="443.032" x2="565.989" y2="379.49"/>
	
		<line fill="none" stroke="#FFFFFF" stroke-width="9.3836" stroke-miterlimit="10" x1="376.506" y1="443.032" x2="376.506" y2="231.221"/>
	
		<line fill="none" stroke="#FFFFFF" stroke-width="9.3836" stroke-miterlimit="10" x1="362.761" y1="443.032" x2="362.761" y2="311.212"/>
	
		<line fill="none" stroke="#FFFFFF" stroke-width="9.3836" stroke-miterlimit="10" x1="305.866" y1="443.032" x2="305.866" y2="393.377"/>
</g>
</svg>
